<?xml version="1.0" standalone="no"?><!DOCTYPE svg PUBLIC "-//W3C//DTD SVG 1.1//EN" "http://www.w3.org/Graphics/SVG/1.1/DTD/svg11.dtd"><svg t="1538998060505" class="icon" style="" viewBox="0 0 1024 1024" version="1.1" xmlns="http://www.w3.org/2000/svg" p-id="18625" xmlns:xlink="http://www.w3.org/1999/xlink" width="200" height="200"><defs><style type="text/css"></style></defs><path d="M597.333333 490.666667A106.666667 106.666667 0 0 0 704 384 106.666667 106.666667 0 0 0 597.333333 277.333333 106.666667 106.666667 0 0 0 490.666667 384a106.666667 106.666667 0 0 0 106.666666 106.666667M597.333333 85.333333c164.693333 0 298.666667 133.546667 298.666667 298.666667 0 224-298.666667 554.666667-298.666667 554.666667S298.666667 608 298.666667 384a298.666667 298.666667 0 0 1 298.666666-298.666667M213.333333 384c0 192 216.746667 454.826667 256 503.893333L426.666667 938.666667S128 608 128 384c0-135.253333 90.026667-249.6 213.333333-286.293333C262.826667 168.106667 213.333333 270.08 213.333333 384z" fill="" p-id="18626"></path></svg>