<?xml version="1.0" standalone="no"?><!DOCTYPE svg PUBLIC "-//W3C//DTD SVG 1.1//EN" "http://www.w3.org/Graphics/SVG/1.1/DTD/svg11.dtd"><svg t="1538998116450" class="icon" style="" viewBox="0 0 1024 1024" version="1.1" xmlns="http://www.w3.org/2000/svg" p-id="18756" xmlns:xlink="http://www.w3.org/1999/xlink" width="200" height="200"><defs><style type="text/css"></style></defs><path d="M135.68 577.706667c24.746667-58.88 59.306667-102.4 84.906667-111.786667-0.426667-34.133333 5.973333-55.466667 16.64-72.533333 0-1.28-2.56-15.36 6.826666-32.853334C250.453333 206.933333 350.293333 85.333333 512 85.333333s261.546667 121.6 267.946667 275.2c9.386667 17.493333 6.826667 31.573333 6.826666 32.853334 10.666667 17.066667 17.066667 38.4 16.64 72.533333 25.6 9.386667 60.16 52.906667 84.906667 112.213333 32 75.093333 37.12 147.2 11.52 160-17.493333 8.533333-45.226667-12.8-71.253333-50.346666-10.24 41.813333-35.84 80.213333-72.106667 110.506666 38.4 14.08 63.146667 37.12 63.146667 63.146667 0 42.666667-67.413333 77.226667-150.186667 77.226667-75.093333 0-136.106667-28.16-148.48-64h-17.92c-12.373333 35.84-73.386667 64-148.48 64-82.773333 0-150.186667-34.56-150.186667-77.226667 0-26.026667 24.746667-49.066667 63.146667-63.146667-36.266667-30.293333-61.866667-68.693333-72.106667-110.506666-26.026667 37.546667-53.76 58.88-71.253333 50.346666-25.6-12.8-20.48-84.906667 11.52-160.426666z" fill="" p-id="18757"></path></svg>